<?xml version="1.0" encoding="UTF-8"?>
<svg version="1.1" xmlns="http://www.w3.org/2000/svg" width="500" height="500">
<path d="M0 0 C165 0 330 0 500 0 C500 165 500 330 500 500 C335 500 170 500 0 500 C0 335 0 170 0 0 Z " fill="#FEFEFE" transform="translate(0,0)"/>
<path d="M0 0 C2.12018013 -0.36914349 2.12018013 -0.36914349 4.7961731 -0.36076355 C5.80862091 -0.36488754 6.82106873 -0.36901154 7.86419678 -0.3732605 C9.53654388 -0.35708176 9.53654388 -0.35708176 11.24267578 -0.34057617 C12.4133963 -0.34101425 13.58411682 -0.34145233 14.79031372 -0.34190369 C18.00512443 -0.34016874 21.21954604 -0.32509825 24.43427896 -0.30418181 C27.79217757 -0.28545894 31.15008338 -0.28366805 34.50802612 -0.28010559 C40.86874132 -0.27077216 47.22930228 -0.24614098 53.58994949 -0.21605712 C60.83046511 -0.18255335 68.07098801 -0.16603726 75.31156182 -0.15097082 C90.2077939 -0.11959243 105.10388154 -0.06680689 120 0 C118.9022971 3.39146371 117.77727981 6.69140563 116.2668457 9.92114258 C115.93441864 10.63634567 115.60199158 11.35154877 115.25949097 12.08842468 C114.90186676 12.84943985 114.54424255 13.61045502 114.17578125 14.39453125 C113.60889084 15.61164543 113.60889084 15.61164543 113.0305481 16.85334778 C112.21775072 18.59786906 111.40355778 20.34174069 110.58810425 22.08502197 C108.41365993 26.73438647 106.25011196 31.38881717 104.0859375 36.04296875 C103.64992722 36.9800769 103.21391693 37.91718506 102.76469421 38.88269043 C98.94100047 47.10858143 95.17701179 55.36057099 91.4375 63.625 C87.48679527 72.35306612 83.51500202 81.07051337 79.4921875 89.765625 C78.90924675 91.02595047 78.90924675 91.02595047 78.31452942 92.31173706 C76.44320154 96.35593174 74.56920373 100.39886032 72.69116211 104.43994141 C66.30232436 118.22929997 60.17530656 132.10556024 54 146 C142.44 146 230.88 146 322 146 C321.12059173 150.39704137 320.05310892 153.34198212 318.1484375 157.328125 C317.85792511 157.94109436 317.56741272 158.55406372 317.26809692 159.18560791 C316.63864611 160.51277798 316.00679357 161.83881106 315.37280273 163.16381836 C313.65043182 166.76490948 311.9469475 170.37492193 310.2421875 173.984375 C309.71229218 175.10489258 309.71229218 175.10489258 309.17169189 176.24804688 C305.53142106 183.96129724 302.01080436 191.72719859 298.5 199.5 C293.34825727 210.89088813 288.12041103 222.24350435 282.8125 233.5625 C282.49603516 234.23812988 282.17957031 234.91375977 281.85351562 235.60986328 C278.6478441 242.44963728 275.37896353 249.24207295 272 256 C241.64 256 211.28 256 180 256 C179.67 257.65 179.34 259.3 179 261 C177.9034626 263.6096445 176.76828426 266.16083664 175.5625 268.71875 C175.21077728 269.47633606 174.85905457 270.23392212 174.49667358 271.01446533 C173.33597075 273.51193533 172.16789237 276.00588506 171 278.5 C170.18248847 280.25654891 169.36560312 282.01338938 168.54931641 283.77050781 C166.86322786 287.3993254 165.17497327 291.02712315 163.48535156 294.65429688 C159.75338876 302.67308599 156.06389699 310.71133466 152.375 318.75 C151.67004296 320.28501173 150.96504616 321.82000519 150.26000977 323.35498047 C141.83196773 341.708062 133.44075505 360.07802249 125.05583191 378.45083618 C115.5378417 399.304868 105.95581687 420.12870431 96.33935547 440.9375 C92.68082882 448.85424855 89.02473878 456.77212194 85.36932373 464.69030762 C84.22128952 467.17681583 83.07282532 469.66312509 81.92431641 472.14941406 C81.21384889 473.68814259 80.50339878 475.22687916 79.79296875 476.765625 C79.48222916 477.43803223 79.17148956 478.11043945 78.85133362 478.80322266 C76.21045553 484.52502998 73.60788236 490.2626588 71 496 C31.4 496 -8.2 496 -49 496 C-46.44928865 489.62322163 -43.87187312 483.32039756 -41.0625 477.0625 C-40.7126001 476.27891113 -40.3627002 475.49532227 -40.00219727 474.68798828 C-37.78148838 469.72127462 -35.53167623 464.76828179 -33.26953125 459.8203125 C-31.9965736 456.99238812 -30.75502371 454.15242123 -29.51928711 451.30810547 C-26.17513289 443.61189469 -22.69451378 435.98938256 -19.12402344 428.39550781 C-11.57729206 412.31198734 -4.14993402 396.17557041 3.18728638 379.99560547 C8.23864254 368.8572274 13.32608589 357.73594205 18.4375 346.625 C23.99276935 334.54785484 29.53779767 322.46616189 35.0625 310.375 C35.54722778 309.31422745 35.54722778 309.31422745 36.04174805 308.23202515 C38.01442555 303.91484981 39.98661065 299.59744967 41.95861816 295.27996826 C44.92459203 288.78635945 47.89099711 282.29294787 50.85812378 275.79986572 C51.9181596 273.47982916 52.97776739 271.15959744 54.03735352 268.83935547 C54.67982942 267.43325871 55.32232508 266.02717097 55.96484375 264.62109375 C56.2588205 263.97705093 56.55279724 263.33300812 56.85568237 262.66944885 C57.87831785 260.43238354 58.8998797 258.2002406 60 256 C41.19 255.67 22.38 255.34 3 255 C1.515 259.455 1.515 259.455 0 264 C-0.97264153 266.25858277 -1.98744314 268.4995538 -3.046875 270.71875 C-3.33482941 271.32660339 -3.62278381 271.93445679 -3.91946411 272.56072998 C-4.53743466 273.86444917 -5.15757242 275.167143 -5.77972412 276.46887207 C-7.46643245 279.99974455 -9.13492675 283.53921439 -10.8046875 287.078125 C-11.15052887 287.81029236 -11.49637024 288.54245972 -11.85269165 289.29681396 C-15.60125809 297.24737004 -19.2462065 305.24422253 -22.875 313.25 C-23.18830261 313.94053467 -23.50160522 314.63106934 -23.82440186 315.3425293 C-26.86684298 322.04970657 -29.8970746 328.76219745 -32.90625 335.484375 C-33.3305127 336.43151367 -33.75477539 337.37865234 -34.19189453 338.35449219 C-34.95569418 340.06240241 -35.71725151 341.77131803 -36.47607422 343.48144531 C-38.89117478 348.89117478 -38.89117478 348.89117478 -40 350 C-41.55620396 350.09588124 -43.11676454 350.12188033 -44.67591858 350.12025452 C-45.68699173 350.12162918 -46.69806488 350.12300385 -47.73977661 350.12442017 C-49.41751663 350.11902725 -49.41751663 350.11902725 -51.12915039 350.11352539 C-52.29972488 350.11367142 -53.47029938 350.11381744 -54.67634583 350.1139679 C-57.89520943 350.11338895 -61.11403004 350.10835991 -64.33288503 350.10139394 C-67.693474 350.09515957 -71.05406373 350.09455654 -74.41465759 350.09336853 C-80.78242342 350.09025546 -87.15017216 350.0820424 -93.51793045 350.07201904 C-100.76569729 350.06085715 -108.01346493 350.05534726 -115.26123822 350.05032361 C-130.17416835 350.03985977 -145.08708247 350.0222608 -160 350 C-159.36517536 348.23642047 -158.72871057 346.47343128 -158.09155273 344.71069336 C-157.73729721 343.72886581 -157.38304169 342.74703827 -157.01805115 341.73545837 C-155.84912161 338.59459646 -154.51324051 335.58327269 -153.0625 332.5625 C-152.4486066 331.26982178 -151.83538564 329.97682411 -151.22265625 328.68359375 C-150.87605957 327.9551123 -150.52946289 327.22663086 -150.17236328 326.47607422 C-147.75537715 321.37131093 -145.37963947 316.24725062 -143 311.125 C-142.44425293 309.92891113 -141.88850586 308.73282227 -141.31591797 307.50048828 C-136.09462427 296.24844676 -130.96401803 284.95575226 -125.83917236 273.6595459 C-125.52228455 272.96107544 -125.20539673 272.26260498 -124.87890625 271.54296875 C-124.56056824 270.84127563 -124.24223022 270.13958252 -123.91424561 269.41662598 C-120.33121774 261.52163511 -116.73011463 253.63492547 -113.125 245.75 C-112.63016617 244.66765579 -112.63016617 244.66765579 -112.12533569 243.56344604 C-106.93039114 232.20275335 -101.71776194 220.85022755 -96.5 209.5 C-91.12832685 197.81347779 -85.75754869 186.12654449 -80.40307617 174.43212891 C-79.73347011 172.97015832 -79.06340849 171.50839626 -78.39282227 170.046875 C-74.65689595 161.90341666 -70.97817907 153.73943931 -67.41549683 145.51847839 C-64.97270395 139.89025445 -62.40416555 134.32554032 -59.78515625 128.77734375 C-59.48883301 128.14940918 -59.19250977 127.52147461 -58.88720703 126.87451172 C-58.02960847 125.06255747 -57.16915181 123.25195681 -56.30859375 121.44140625 C-51.48064004 111.26597628 -46.81608479 101.01866154 -42.16674805 90.76080322 C-36.45497142 78.16215973 -30.67264561 65.59709875 -24.86309814 53.04327393 C-20.74393473 44.14099497 -16.64005739 35.23254659 -12.59375 26.296875 C-12.2445752 25.52609619 -11.89540039 24.75531738 -11.53564453 23.96118164 C-9.88424156 20.31384679 -8.23648933 16.66491671 -6.59375 13.01367188 C-6.01047409 11.7226303 -5.42714398 10.43161322 -4.84375 9.140625 C-4.34037109 8.02204102 -3.83699219 6.90345703 -3.31835938 5.75097656 C-2 3 -2 3 0 0 Z " fill="#AD5BA3" transform="translate(169,2)"/>
<path d="M0 0 C0.93928345 -0.00556915 1.87856689 -0.01113831 2.84631348 -0.01687622 C3.87495514 -0.00766144 4.9035968 0.00155334 5.96340942 0.01104736 C7.5906192 0.0079808 7.5906192 0.0079808 9.2507019 0.00485229 C12.84667668 0.00183748 16.44219595 0.02034538 20.03811646 0.03936768 C22.53291714 0.04242465 25.02771953 0.04430124 27.52252197 0.04504395 C32.7564543 0.0496517 37.99026965 0.06370399 43.22415161 0.08624268 C49.93503918 0.11508356 56.64580359 0.12545089 63.35674858 0.12992477 C68.51083591 0.13408181 73.66489873 0.14390217 78.81897354 0.15579987 C81.29332406 0.16150004 83.76767694 0.16625958 86.2420311 0.17006683 C89.70128258 0.17694022 93.16043853 0.1905788 96.61965942 0.20635986 C97.64425262 0.20747772 98.66884583 0.20859558 99.7244873 0.20974731 C100.6694104 0.21545746 101.6143335 0.2211676 102.58789062 0.22705078 C103.40531172 0.23002544 104.22273281 0.23300011 105.06492424 0.23606491 C107.59321811 0.37710368 109.95232961 0.81577882 112.42092896 1.36749268 C113.86561891 5.70156255 111.83700059 8.41943115 109.95999146 12.32843018 C109.58319748 13.13332886 109.2064035 13.93822754 108.81819153 14.76751709 C107.56956589 17.43007549 106.30759149 20.08609043 105.04592896 22.74249268 C104.17136518 24.6028111 103.29792453 26.4636579 102.42556763 28.32501221 C100.63269347 32.1493909 98.83590972 35.97189494 97.03665161 39.79327393 C93.5706608 47.16614214 90.166944 54.56726465 86.77313232 61.97357178 C85.72662088 64.25734977 84.67879195 66.54051924 83.63064575 68.82354736 C75.22151205 87.14391345 66.84606473 105.4797397 58.47676086 123.81832886 C48.95877065 144.67236067 39.37674583 165.49619699 29.76028442 186.30499268 C26.10175777 194.22174122 22.44566773 202.13961462 18.79025269 210.05780029 C17.64221848 212.54430851 16.49375427 215.03061776 15.34524536 217.51690674 C14.63477785 219.05563527 13.92432774 220.59437184 13.21389771 222.13311768 C12.90315811 222.8055249 12.59241852 223.47793213 12.27226257 224.17071533 C9.63138448 229.89252265 7.02881132 235.63015148 4.42092896 241.36749268 C-35.17907104 241.36749268 -74.77907104 241.36749268 -115.57907104 241.36749268 C-113.0283597 234.99071431 -110.45094416 228.68789024 -107.64157104 222.42999268 C-107.29167114 221.64640381 -106.94177124 220.86281494 -106.58126831 220.05548096 C-104.36055942 215.08876729 -102.11074728 210.13577447 -99.84860229 205.18780518 C-98.57564465 202.3598808 -97.33409475 199.51991391 -96.09835815 196.67559814 C-92.75420394 188.97938737 -89.27358483 181.35687523 -85.70309448 173.76300049 C-78.15636311 157.67948002 -70.72900507 141.54306308 -63.39178467 125.36309814 C-58.34042851 114.22472008 -53.25298515 103.10343473 -48.14157104 91.99249268 C-42.91819396 80.63688067 -37.70209886 69.27805556 -32.5071106 57.90942383 C-31.52450803 55.75985584 -30.54091001 53.61074581 -29.55709839 51.46173096 C-26.43842304 44.6462005 -23.3307228 37.82606257 -20.25032043 30.99313354 C-18.78059111 27.73462552 -17.30592003 24.47836538 -15.83081055 21.22229004 C-15.1270476 19.66510377 -14.4257313 18.10680921 -13.72698975 16.54736328 C-12.7605732 14.390857 -11.78596675 12.23823083 -10.80953979 10.08624268 C-10.52588562 9.44736115 -10.24223145 8.80847961 -9.94998169 8.15023804 C-7.55100637 2.90008926 -6.03690952 -0.01084101 0 0 Z " fill="#C65DA2" transform="translate(235.57907104492188,256.63250732421875)"/>
<path d="M0 0 C2.12018013 -0.36914349 2.12018013 -0.36914349 4.7961731 -0.36076355 C5.80862091 -0.36488754 6.82106873 -0.36901154 7.86419678 -0.3732605 C9.53654388 -0.35708176 9.53654388 -0.35708176 11.24267578 -0.34057617 C12.4133963 -0.34101425 13.58411682 -0.34145233 14.79031372 -0.34190369 C18.00512443 -0.34016874 21.21954604 -0.32509825 24.43427896 -0.30418181 C27.79217757 -0.28545894 31.15008338 -0.28366805 34.50802612 -0.28010559 C40.86874132 -0.27077216 47.22930228 -0.24614098 53.58994949 -0.21605712 C60.83046511 -0.18255335 68.07098801 -0.16603726 75.31156182 -0.15097082 C90.2077939 -0.11959243 105.10388154 -0.06680689 120 0 C118.9022971 3.39146371 117.77727981 6.69140563 116.2668457 9.92114258 C115.93441864 10.63634567 115.60199158 11.35154877 115.25949097 12.08842468 C114.90186676 12.84943985 114.54424255 13.61045502 114.17578125 14.39453125 C113.60889084 15.61164543 113.60889084 15.61164543 113.0305481 16.85334778 C112.21775072 18.59786906 111.40355778 20.34174069 110.58810425 22.08502197 C108.41365993 26.73438647 106.25011196 31.38881717 104.0859375 36.04296875 C103.64992722 36.9800769 103.21391693 37.91718506 102.76469421 38.88269043 C98.94099759 47.10858761 95.17744789 55.36076404 91.4375 63.625 C83.05743678 82.1291628 74.52485527 100.56218429 66 119 C62.04 127.58 58.08 136.16 54 145 C15.06 145 -23.88 145 -64 145 C-64.99 147.97 -65.98 150.94 -67 154 C-68.53901698 157.72839275 -70.26800486 161.3577161 -72 165 C-72.43828125 165.95261719 -72.8765625 166.90523437 -73.328125 167.88671875 C-73.75609375 168.79035156 -74.1840625 169.69398438 -74.625 170.625 C-75.00914063 171.44226563 -75.39328125 172.25953125 -75.7890625 173.1015625 C-77 175 -77 175 -80 176 C-79.34609264 171.72398829 -77.87681208 168.18526336 -76.0859375 164.2578125 C-75.79320953 163.61238495 -75.50048157 162.9669574 -75.19888306 162.30197144 C-74.26247798 160.24071429 -73.31879972 158.18288007 -72.375 156.125 C-71.76385843 154.78146119 -71.15317751 153.43771273 -70.54296875 152.09375 C-65.29588253 140.55726659 -59.9382278 129.07256471 -54.5 117.625 C-50.28835969 108.71627143 -46.23460432 99.73573784 -42.16674805 90.76080322 C-36.45497142 78.16215973 -30.67264561 65.59709875 -24.86309814 53.04327393 C-20.74393473 44.14099497 -16.64005739 35.23254659 -12.59375 26.296875 C-12.2445752 25.52609619 -11.89540039 24.75531738 -11.53564453 23.96118164 C-9.88424156 20.31384679 -8.23648933 16.66491671 -6.59375 13.01367188 C-6.01047409 11.7226303 -5.42714398 10.43161322 -4.84375 9.140625 C-4.34037109 8.02204102 -3.83699219 6.90345703 -3.31835938 5.75097656 C-2 3 -2 3 0 0 Z " fill="#8152A1" transform="translate(169,2)"/>
<path d="M0 0 C1.32 0 2.64 0 4 0 C2.49617408 4.85840512 0.54485767 9.36301307 -1.60546875 13.95703125 C-1.96659256 14.73592209 -2.32771637 15.51481293 -2.69978333 16.31730652 C-3.85934045 18.8171179 -5.02313174 21.31492643 -6.1875 23.8125 C-7.68284661 27.02648327 -9.17605569 30.24145278 -10.66796875 33.45703125 C-11.25286575 34.71702438 -11.25286575 34.71702438 -11.84957886 36.00247192 C-18.31563867 49.96364314 -24.64577563 63.98767888 -31 78 C-29.88152176 78.01030746 -28.76304352 78.02061493 -27.610672 78.03123474 C-16.9773962 78.12975427 -6.34416882 78.23254879 4.28902721 78.33933926 C9.75329567 78.39408528 15.2175697 78.44741768 20.68188477 78.49731445 C25.97284557 78.5456837 31.26375441 78.59803371 36.55465126 78.65294075 C38.55523669 78.67304157 40.55583615 78.69179971 42.55644798 78.70907402 C56.05973876 78.82685274 69.51601489 79.26450204 83 80 C83.33 80.66 83.66 81.32 84 82 C83.03808594 84.60571289 83.03808594 84.60571289 81.484375 87.97265625 C81.20165237 88.5908725 80.91892975 89.20908875 80.62763977 89.84603882 C79.67595808 91.92174659 78.71298328 93.99201397 77.75 96.0625 C77.07673348 97.5251688 76.40413993 98.98814754 75.73217773 100.45141602 C73.89257308 104.4509441 72.04240733 108.44549532 70.18890381 112.43859863 C68.97465361 115.05460683 67.76180803 117.67126224 66.54931641 120.28808594 C65.71647567 122.08528846 64.88363059 123.88248897 64.05078125 125.6796875 C63.6357132 126.57539963 63.22064514 127.47111176 62.79299927 128.39396667 C60.76569302 132.76767986 58.7359546 137.14022409 56.70019531 141.51000977 C52.53092344 150.46976103 48.42561329 159.45094908 44.47096252 168.50791931 C42.10505109 173.89494891 42.10505109 173.89494891 41 175 C39.44379604 175.09588124 37.88323546 175.12188033 36.32408142 175.12025452 C35.31300827 175.12162918 34.30193512 175.12300385 33.26022339 175.12442017 C31.58248337 175.11902725 31.58248337 175.11902725 29.87084961 175.11352539 C28.70027512 175.11367142 27.52970062 175.11381744 26.32365417 175.1139679 C23.10479057 175.11338895 19.88596996 175.10835991 16.66711497 175.10139394 C13.306526 175.09515957 9.94593627 175.09455654 6.58534241 175.09336853 C0.21757658 175.09025546 -6.15017216 175.0820424 -12.51793045 175.07201904 C-19.76569729 175.06085715 -27.01346493 175.05534726 -34.26123822 175.05032361 C-49.17416835 175.03985977 -64.08708247 175.0222608 -79 175 C-78.36517536 173.23642047 -77.72871057 171.47343128 -77.09155273 169.71069336 C-76.73729721 168.72886581 -76.38304169 167.74703827 -76.01805115 166.73545837 C-74.84912161 163.59459646 -73.51324051 160.58327269 -72.0625 157.5625 C-71.4486066 156.26982178 -70.83538564 154.97682411 -70.22265625 153.68359375 C-69.87605957 152.9551123 -69.52946289 152.22663086 -69.17236328 151.47607422 C-66.75537715 146.37131093 -64.37963947 141.24725062 -62 136.125 C-61.44425293 134.92891113 -60.88850586 133.73282227 -60.31591797 132.50048828 C-55.09462427 121.24844676 -49.96401803 109.95575226 -44.83917236 98.6595459 C-44.36384064 97.61184021 -44.36384064 97.61184021 -43.87890625 96.54296875 C-43.56056824 95.84127563 -43.24223022 95.13958252 -42.91424561 94.41662598 C-39.3312173 86.52163412 -35.72985715 78.63504399 -32.125 70.75 C-31.79810181 70.03475159 -31.47120361 69.31950317 -31.13439941 68.58258057 C-27.25362096 60.09263212 -23.36173287 51.6078793 -19.45703125 43.12890625 C-18.88888702 41.89462387 -18.88888702 41.89462387 -18.30926514 40.63540649 C-16.49014675 36.68346313 -14.66967616 32.73215716 -12.84619141 28.78222656 C-8.44697944 19.23788385 -4.17657644 9.64382818 0 0 Z " fill="#DE6EAA" transform="translate(88,177)"/>
<path d="M0 0 C2.42288505 1.30108415 4.23056411 2.87137968 5.97265625 4.9921875 C7.50475815 11.12059511 6.90282943 15.95810394 3.8671875 21.41796875 C0.39305762 26.17579472 -4.76419355 29.03628073 -10.46484375 30.2421875 C-17.1643173 30.81149026 -22.61157514 30.70636688 -28.46484375 27.2421875 C-30.99575355 25.03575331 -32.23654627 23.49429328 -32.84375 20.1640625 C-33.137065 14.60053935 -31.97426046 10.57226781 -28.46484375 6.2421875 C-21.04197416 -1.42472164 -10.09986437 -3.1051881 0 0 Z " fill="#FAF6FA" transform="translate(306.46484375,184.7578125)"/>
<path d="M0 0 C7.5790472 -1.03135599 7.5790472 -1.03135599 10.74169922 1.26416016 C12.28762025 3.04066272 13.62291183 4.85890265 14.9375 6.8125 C15.63842773 7.77639648 15.63842773 7.77639648 16.35351562 8.75976562 C18.30537575 11.46212577 20.15087316 14.22630973 22 17 C23.95088223 11.38145918 25.63172347 5.78886224 27 0 C29.64 0 32.28 0 35 0 C34.35299955 9.86675685 32.12620288 19.3678065 30 29 C22.60617109 29.42053836 22.60617109 29.42053836 19.93359375 27.56640625 C19.43988281 26.90511719 18.94617188 26.24382812 18.4375 25.5625 C17.87804687 24.84191406 17.31859375 24.12132812 16.7421875 23.37890625 C16.16726563 22.59386719 15.59234375 21.80882812 15 21 C13.68922587 19.33197566 12.3767707 17.66527071 11.0625 16 C10.03918712 14.66856873 9.01741815 13.33594116 8 12 C6.03707012 17.58680041 4.52601632 23.28252551 3 29 C0.36 29 -2.28 29 -5 29 C-4.35963063 22.37386221 -3.29028836 15.95287291 -1.9375 9.4375 C-1.75123047 8.52419922 -1.56496094 7.61089844 -1.37304688 6.66992188 C-0.91891897 4.44585955 -0.461187 2.22260724 0 0 Z " fill="#FBF9FB" transform="translate(318,185)"/>
<path d="M0 0 C10.23 0 20.46 0 31 0 C30.67 1.98 30.34 3.96 30 6 C22.41 6 14.82 6 7 6 C7 7.65 7 9.3 7 11 C12.61 11 18.22 11 24 11 C24 12.98 24 14.96 24 17 C17.73 17 11.46 17 5 17 C4.67 18.98 4.34 20.96 4 23 C11.26 23 18.52 23 26 23 C25.67 24.98 25.34 26.96 25 29 C14.77 29 4.54 29 -6 29 C-5.195625 24.771875 -4.39125 20.54375 -3.5625 16.1875 C-3.31056885 14.8574292 -3.0586377 13.5273584 -2.79907227 12.15698242 C-2.59854248 11.10873291 -2.3980127 10.0604834 -2.19140625 8.98046875 C-1.98717041 7.90692139 -1.78293457 6.83337402 -1.57250977 5.72729492 C-1 3 -1 3 0 0 Z " fill="#FCF9FB" transform="translate(244,185)"/>
<path d="M0 0 C9.73004484 -0.92017937 9.73004484 -0.92017937 12.84375 1.3359375 C14.1875 3 14.1875 3 16 6 C18.98791956 5.00402681 20.68023487 4.4181544 22.625 1.875 C26.55601124 -1.22842993 31.17378143 -0.29955839 36 0 C31.72706118 5.23435005 27.18419194 9.67106815 22 14 C22.48210937 14.74765625 22.96421875 15.4953125 23.4609375 16.265625 C24.40839844 17.74289063 24.40839844 17.74289063 25.375 19.25 C26.00148437 20.22453125 26.62796875 21.1990625 27.2734375 22.203125 C28.65134852 24.43521615 29.88312642 26.63087422 31 29 C21.33196511 29.91431503 21.33196511 29.91431503 18.15625 27.734375 C16.36015539 25.58323843 15 23.87519213 15 21 C14.40574219 21.5775 13.81148437 22.155 13.19921875 22.75 C8.51889657 26.94263698 5.3356236 29.5670363 -1.125 29.5 C-2.75363314 29.37367942 -4.38156705 29.22153455 -6 29 C-1.72706118 23.76564995 2.81580806 19.32893185 8 15 C6.67961616 11.3849685 5.06829593 8.40749849 2.875 5.25 C0 1.09569378 0 1.09569378 0 0 Z " fill="#FDFAFC" transform="translate(205,185)"/>
<path d="M0 0 C1.59134766 -0.03867188 1.59134766 -0.03867188 3.21484375 -0.078125 C6.0625 0.25 6.0625 0.25 7.9453125 1.48828125 C9.79215347 4.4006074 9.13124044 6.80054536 8.64453125 10.08984375 C7.83950154 13.07763857 6.56922559 14.48054664 4.0625 16.25 C1.15708095 17.21847302 -0.90387454 17.44582812 -3.9375 17.5 C-4.80375 17.52578125 -5.67 17.5515625 -6.5625 17.578125 C-8.9375 17.25 -8.9375 17.25 -10.72265625 15.9765625 C-12.4467062 13.52630501 -12.40322006 11.18149949 -12.30078125 8.25390625 C-11.73572507 5.13698347 -10.16632343 3.4132698 -7.9375 1.25 C-5.23187257 -0.10281371 -3.01856345 0.04390638 0 0 Z " fill="#AC59A2" transform="translate(294.9375,190.75)"/>
<path d="M0 0 C1.32 0 2.64 0 4 0 C2.46113694 4.99441746 0.42611436 9.62152113 -1.78125 14.34375 C-2.15124115 15.14247528 -2.5212323 15.94120056 -2.9024353 16.76412964 C-4.09836136 19.34428235 -5.29878268 21.92230687 -6.5 24.5 C-8.13940044 28.02279749 -9.77737361 31.54625443 -11.4140625 35.0703125 C-11.81464874 35.93226227 -12.21523499 36.79421204 -12.62796021 37.68228149 C-14.89642307 42.57618297 -17.11569695 47.48596819 -19.2734375 52.4296875 C-19.72525391 53.45900391 -20.17707031 54.48832031 -20.64257812 55.54882812 C-21.44258051 57.38338193 -22.23105805 59.22302081 -23.00585938 61.06835938 C-23.35197266 61.85791016 -23.69808594 62.64746094 -24.0546875 63.4609375 C-24.33812012 64.12915527 -24.62155273 64.79737305 -24.91357422 65.48583984 C-26 67 -26 67 -28.12158203 67.72119141 C-29.05139893 67.85920166 -29.05139893 67.85920166 -30 68 C-27.72476594 60.3825497 -24.46950031 53.33886662 -21.04641724 46.18286133 C-19.36272437 42.66142039 -17.69644014 39.13178257 -16.03125 35.6015625 C-15.69400406 34.8869989 -15.35675812 34.1724353 -15.0092926 33.43621826 C-9.80777467 22.38066139 -4.90337069 11.19027656 0 0 Z " fill="#CF589F" transform="translate(88,177)"/>
<path d="M0 0 C1.5675 -0.061875 3.135 -0.12375 4.75 -0.1875 C6.07257813 -0.23970703 6.07257813 -0.23970703 7.421875 -0.29296875 C10.44671583 0.05076316 11.75583602 1.00227459 14 3 C13.814375 4.134375 13.62875 5.26875 13.4375 6.4375 C13.2209375 8.2009375 13.2209375 8.2009375 13 10 C13.33 10.33 13.66 10.66 14 11 C14.1875 13.4375 14.1875 13.4375 14 16 C12 18 12 18 9.1796875 18.1953125 C6.11979167 18.13020833 3.05989583 18.06510417 0 18 C0 12.06 0 6.12 0 0 Z " fill="#F6DCEB" transform="translate(174,220)"/>
<path d="M0 0 C1.65 0 3.3 0 5 0 C6.32 2.97 7.64 5.94 9 9 C11.6465335 6.3534665 12.59941997 3.43778736 14 0 C15.65 0 17.3 0 19 0 C19 5.61 19 11.22 19 17 C17.68 17 16.36 17 15 17 C14.67 15.02 14.34 13.04 14 11 C13.34 12.98 12.68 14.96 12 17 C10.35 16.67 8.7 16.34 7 16 C6.34 14.02 5.68 12.04 5 10 C4.67 12.31 4.34 14.62 4 17 C2.68 17 1.36 17 0 17 C0 11.39 0 5.78 0 0 Z " fill="#FBF9FB" transform="translate(353,221)"/>
<path d="M0 0 C1.65 0 3.3 0 5 0 C6.80078125 1.96875 6.80078125 1.96875 8.3125 4.5 C8.82425781 5.3353125 9.33601562 6.170625 9.86328125 7.03125 C10.23839844 7.6809375 10.61351562 8.330625 11 9 C11.33 6.03 11.66 3.06 12 0 C13.32 0 14.64 0 16 0 C16 5.61 16 11.22 16 17 C14.35 17 12.7 17 11 17 C9.41796875 15.25 9.41796875 15.25 8.1875 13 C7.55908203 11.88625 7.55908203 11.88625 6.91796875 10.75 C6.61503906 10.1725 6.31210938 9.595 6 9 C5.67 11.64 5.34 14.28 5 17 C3.35 17 1.7 17 0 17 C0 11.39 0 5.78 0 0 Z " fill="#FBF2F7" transform="translate(214,221)"/>
<path d="M0 0 C1.65 0 3.3 0 5 0 C6.34426712 2.99523597 7.67507499 5.99616239 9 9 C9.4125 9.928125 9.825 10.85625 10.25 11.8125 C11 14 11 14 11 18 C9.68 18 8.36 18 7 18 C6.67 17.34 6.34 16.68 6 16 C3.67843403 15.59270772 1.3431213 15.25561323 -1 15 C-1 15.99 -1 16.98 -1 18 C-2.65 18 -4.3 18 -6 18 C-4.23536928 11.89262558 -2.30442525 5.92566493 0 0 Z " fill="#F8E5F0" transform="translate(198,220)"/>
<path d="M0 0 C1.32 0 2.64 0 4 0 C4.33 1.65 4.66 3.3 5 5 C5.556875 4.175 6.11375 3.35 6.6875 2.5 C9 0 9 0 11.75 -0.3125 C12.86375 -0.1578125 12.86375 -0.1578125 14 0 C13.2884375 1.0828125 13.2884375 1.0828125 12.5625 2.1875 C10.47480651 5.88588079 10.47480651 5.88588079 10 10 C11.4329824 12.53283605 13.14010869 14.76684331 15 17 C12.25 17.375 12.25 17.375 9 17 C6.625 14 6.625 14 5 11 C4.67 12.98 4.34 14.96 4 17 C2.68 17 1.36 17 0 17 C0 11.39 0 5.78 0 0 Z " fill="#FCF8FB" transform="translate(236,221)"/>
<path d="M0 0 C2.3125 1.875 2.3125 1.875 4 4 C4 4.66 4 5.32 4 6 C2.35 6 0.7 6 -1 6 C-1 5.34 -1 4.68 -1 4 C-1.99 4 -2.98 4 -4 4 C-4 4.99 -4 5.98 -4 7 C-2.576875 7.433125 -2.576875 7.433125 -1.125 7.875 C2 9 2 9 4 11 C3.67028521 14.29714793 3.3773161 15.6226839 1 18 C-5.20512821 18.56410256 -5.20512821 18.56410256 -7.9375 16.625 C-9 15 -9 15 -9 13 C-7.35 13 -5.7 13 -4 13 C-4 13.66 -4 14.32 -4 15 C-3.01 15 -2.02 15 -1 15 C-1.71639199 11.71156462 -1.71639199 11.71156462 -5 10.375 C-5.99 9.92125 -6.98 9.4675 -8 9 C-9 8 -9 8 -9.3125 5.625 C-9 3 -9 3 -7.3125 1.1875 C-4.53003034 -0.24133577 -3.08514067 -0.53989962 0 0 Z " fill="#F7F1F7" transform="translate(310,220)"/>
<path d="M0 0 C3.4375 0.75 3.4375 0.75 5.4375 2.75 C5.4375 3.74 5.4375 4.73 5.4375 5.75 C3.7875 5.75 2.1375 5.75 0.4375 5.75 C0.4375 5.09 0.4375 4.43 0.4375 3.75 C-0.5525 3.75 -1.5425 3.75 -2.5625 3.75 C-2.5625 4.74 -2.5625 5.73 -2.5625 6.75 C-0.8609375 7.2140625 -0.8609375 7.2140625 0.875 7.6875 C4.4375 8.75 4.4375 8.75 5.4375 9.75 C5.6875 12.6875 5.6875 12.6875 5.4375 15.75 C1.76403229 18.19897847 -0.22606399 18.06537716 -4.5625 17.75 C-5.2225 17.09 -5.8825 16.43 -6.5625 15.75 C-6.5625 14.76 -6.5625 13.77 -6.5625 12.75 C-4.2525 13.08 -1.9425 13.41 0.4375 13.75 C0.7675 13.09 1.0975 12.43 1.4375 11.75 C0.32375 11.481875 -0.79 11.21375 -1.9375 10.9375 C-5.5625 9.75 -5.5625 9.75 -7.5625 6.75 C-7.375 4.1875 -7.375 4.1875 -6.5625 1.75 C-3.5625 -0.25 -3.5625 -0.25 0 0 Z " fill="#F9F0F6" transform="translate(270.5625,220.25)"/>
<path d="M0 0 C3.3 0 6.6 0 10 0 C10 0.99 10 1.98 10 3 C8.02 3 6.04 3 4 3 C4 3.99 4 4.98 4 6 C5.98 6 7.96 6 10 6 C10 7.32 10 8.64 10 10 C8.02 10 6.04 10 4 10 C4 11.32 4 12.64 4 14 C5.98 14 7.96 14 10 14 C10 14.99 10 15.98 10 17 C6.7 17 3.4 17 0 17 C0 11.39 0 5.78 0 0 Z " fill="#FAF8FB" transform="translate(337,221)"/>
<path d="M0 0 C2.3125 -0.3125 2.3125 -0.3125 5 0 C6.8125 2.5 6.8125 2.5 8 5 C8.66 3.35 9.32 1.7 10 0 C11.65 0 13.3 0 15 0 C13.21656051 5.60509554 13.21656051 5.60509554 11.9375 7.9375 C10.60329743 10.87274566 10.36721785 13.81744533 10 17 C8.35 17 6.7 17 5 17 C4.89042969 16.41992188 4.78085937 15.83984375 4.66796875 15.2421875 C3.68125712 10.38082776 2.36364178 6.40496877 0 2 C0 1.34 0 0.68 0 0 Z " fill="#F8F0F6" transform="translate(281,221)"/>
<path d="M0 0 C4.62 0 9.24 0 14 0 C14 0.99 14 1.98 14 3 C12.35 3 10.7 3 9 3 C9 7.62 9 12.24 9 17 C7.68 17 6.36 17 5 17 C5 12.38 5 7.76 5 3 C3.35 3 1.7 3 0 3 C0 2.01 0 1.02 0 0 Z " fill="#FDFCFD" transform="translate(318,221)"/>
<path d="M0 0 C-1.81354011 6.23404413 -4.25740007 12.09748711 -6.9375 18 C-7.27330078 18.76626709 -7.60910156 19.53253418 -7.95507812 20.32202148 C-8.28830078 21.04075439 -8.62152344 21.7594873 -8.96484375 22.5 C-9.2599585 23.1496875 -9.55507324 23.799375 -9.85913086 24.46875 C-11.35326443 26.47414392 -12.5819616 26.6368687 -15 27 C-13.17668594 20.73235792 -10.68823019 14.90579796 -7.9375 9 C-7.58494141 8.23373291 -7.23238281 7.46746582 -6.86914062 6.67797852 C-3.71317634 0 -3.71317634 0 0 0 Z " fill="#D961A4" transform="translate(73,218)"/>
<path d="M0 0 C-0.33 0.99 -0.66 1.98 -1 3 C-3.31 2.34 -5.62 1.68 -8 1 C-8.33 1.66 -8.66 2.32 -9 3 C-9 2.01 -9 1.02 -9 0 C-5.67465243 -1.10844919 -3.37817425 -0.84454356 0 0 Z " fill="#C470AF" transform="translate(272,232)"/>
<path d="M0 0 C0 0.99 0 1.98 0 3 C-0.99 3 -1.98 3 -3 3 C-3 2.34 -3 1.68 -3 1 C-4.65 1 -6.3 1 -8 1 C-4.93251126 -0.86240388 -3.40254489 -1.2151946 0 0 Z " fill="#B572B1" transform="translate(309,232)"/>
</svg>
